<svg width="53" height="78" viewBox="0 0 53 78" fill="none" xmlns="http://www.w3.org/2000/svg">
<path d="M13.2527 78C20.5653 78 26.5001 72.176 26.5001 65V52H13.2527C5.94019 52 0.00537109 57.824 0.00537109 65C0.00537109 72.176 5.94019 78 13.2527 78Z" fill="#4F4F4F"/>
<path d="M0.00537109 39C0.00537109 31.824 5.94019 26 13.2527 26H26.5001V52H13.2527C5.94019 52 0.00537109 46.176 0.00537109 39Z" fill="#3F3F3F"/>
<path d="M0.00537109 13C0.00537109 5.824 5.94019 0 13.2527 0H26.5001V26H13.2527C5.94019 26 0.00537109 20.176 0.00537109 13Z" fill="#3F3F3F"/>
<path d="M26.5 0H39.7474C47.0599 0 52.9947 5.824 52.9947 13C52.9947 20.176 47.0599 26 39.7474 26H26.5V0Z" fill="#4F4E4E"/>
<path d="M52.9947 39C52.9947 46.176 47.0599 52 39.7474 52C32.4348 52 26.5 46.176 26.5 39C26.5 31.824 32.4348 26 39.7474 26C47.0599 26 52.9947 31.824 52.9947 39Z" fill="#3F3F3F"/>
</svg>
